<svg xmlns="http://www.w3.org/2000/svg" width="117.046" height="234.736" viewBox="0 0 117.046 234.736">
  <g id="Payment" transform="translate(-4014.954 -3868)">
    <path id="Path_532" data-name="Path 532" d="M388.99,168.782H387.7V133.449A20.45,20.45,0,0,0,367.25,113H292.393a20.45,20.45,0,0,0-20.45,20.45V327.287a20.45,20.45,0,0,0,20.45,20.45H367.25a20.45,20.45,0,0,0,20.45-20.45V193.933h1.29Z" transform="translate(3743.01 3755)" fill="#3f3d56"/>
    <path id="Path_533" data-name="Path 533" d="M377.5,128.933h-9.771a7.255,7.255,0,0,1-6.717,10H318.127a7.255,7.255,0,0,1-6.718-10h-9.127A15.272,15.272,0,0,0,287.011,144.2V337.758a15.272,15.272,0,0,0,15.272,15.272H377.5a15.271,15.271,0,0,0,15.271-15.271V144.2A15.272,15.272,0,0,0,377.5,128.933Zm-1.642,89.79a3.967,3.967,0,0,1-3.956,3.956H352.784a3.967,3.967,0,0,1-3.956-3.956v-.989a3.967,3.967,0,0,1,3.956-3.956H371.9a3.967,3.967,0,0,1,3.956,3.956ZM378,201.253a3.967,3.967,0,0,1-3.956,3.956H305.481a3.967,3.967,0,0,1-3.956-3.956v-.989a3.967,3.967,0,0,1,3.956-3.956h68.564A3.967,3.967,0,0,1,378,200.264Zm0-17.471a3.967,3.967,0,0,1-3.956,3.956H305.481a3.967,3.967,0,0,1-3.956-3.956v-.989a3.967,3.967,0,0,1,3.956-3.956h68.564A3.967,3.967,0,0,1,378,182.793Zm0-17.471a3.967,3.967,0,0,1-3.956,3.956H305.481a3.967,3.967,0,0,1-3.956-3.956v-.989a3.967,3.967,0,0,1,3.956-3.956h68.564A3.967,3.967,0,0,1,378,165.322Z" transform="translate(3733.431 3744.871)" fill="#fff"/>
    <circle id="Ellipse_73" data-name="Ellipse 73" cx="2.307" cy="2.307" r="2.307" transform="translate(4038.088 3943.487)" fill="#fff"/>
    <circle id="Ellipse_74" data-name="Ellipse 74" cx="2.307" cy="2.307" r="2.307" transform="translate(4045.67 3943.487)" fill="#fff"/>
    <circle id="Ellipse_75" data-name="Ellipse 75" cx="2.307" cy="2.307" r="2.307" transform="translate(4053.251 3943.487)" fill="#fff"/>
    <circle id="Ellipse_76" data-name="Ellipse 76" cx="2.307" cy="2.307" r="2.307" transform="translate(4060.833 3943.487)" fill="#fff"/>
    <circle id="Ellipse_77" data-name="Ellipse 77" cx="2.307" cy="2.307" r="2.307" transform="translate(4085.556 3960.958)" fill="#fff"/>
    <circle id="Ellipse_78" data-name="Ellipse 78" cx="2.307" cy="2.307" r="2.307" transform="translate(4093.138 3960.958)" fill="#fff"/>
    <circle id="Ellipse_79" data-name="Ellipse 79" cx="2.307" cy="2.307" r="2.307" transform="translate(4100.719 3960.958)" fill="#fff"/>
    <path id="Path_534" data-name="Path 534" d="M389.7,456.6H311.5a6.927,6.927,0,0,0-6.927,6.927v38.1a6.927,6.927,0,0,0,6.927,6.927h78.2a6.927,6.927,0,0,0,6.927-6.927v-38.1A6.927,6.927,0,0,0,389.7,456.6Zm-80.13,4.725A9.559,9.559,0,0,1,320.66,468l.123.38-.393.07a10.445,10.445,0,0,1-1.7.125,10.1,10.1,0,0,1-5.151-1.3,10.941,10.941,0,0,1-4.245-5.5l-.123-.38ZM326.542,496.7H312.595a3.835,3.835,0,0,1,0-7.671h13.947a3.835,3.835,0,0,1,0,7.671ZM390,496a4.2,4.2,0,0,1-4.184,4.184h-10.46A4.2,4.2,0,0,1,371.172,496v-6.276a4.2,4.2,0,0,1,4.184-4.184h10.46A4.2,4.2,0,0,1,390,489.725Z" transform="translate(3722.265 3536.561)" fill="#6c63ff"/>
    <path id="Path_535" data-name="Path 535" d="M498.827,561.213h-4.205a1.132,1.132,0,1,0,0,2.265h4.206a1.132,1.132,0,0,0,0-2.265Z" transform="translate(3602.166 3470.056)" fill="#3f3d56"/>
    <path id="Path_536" data-name="Path 536" d="M520.143,561.213h-4.206a1.132,1.132,0,1,0,0,2.265h4.206a1.132,1.132,0,1,0,0-2.265Z" transform="translate(3588.615 3470.056)" fill="#3f3d56"/>
    <path id="Path_537" data-name="Path 537" d="M498.826,552.438H494.62a1.132,1.132,0,1,0,0,2.265h4.206a1.132,1.132,0,1,0,0-2.265Z" transform="translate(3602.167 3475.634)" fill="#3f3d56"/>
    <path id="Path_538" data-name="Path 538" d="M520.141,552.438h-4.206a1.132,1.132,0,1,0,0,2.265h4.206a1.132,1.132,0,1,0,0-2.265Z" transform="translate(3588.616 3475.634)" fill="#3f3d56"/>
    <path id="Path_539" data-name="Path 539" d="M498.826,543.841H494.62a1.132,1.132,0,1,0,0,2.265h4.206a1.132,1.132,0,0,0,0-2.265Z" transform="translate(3602.167 3481.1)" fill="#3f3d56"/>
    <path id="Path_540" data-name="Path 540" d="M520.141,543.841h-4.206a1.132,1.132,0,1,0,0,2.265h4.206a1.132,1.132,0,1,0,0-2.265Z" transform="translate(3588.616 3481.1)" fill="#3f3d56"/>
  </g>
</svg>
