<svg xmlns="http://www.w3.org/2000/svg" width="230.835" height="148.022" viewBox="0 0 230.835 148.022">
  <g id="Supplier" transform="translate(-3880 -3694)">
    <path id="Path_520" data-name="Path 520" d="M449.423,187H233.791a7.608,7.608,0,0,0-7.6,7.6v23.2a7.608,7.608,0,0,0,7.6,7.6H449.423a7.608,7.608,0,0,0,7.6-7.6V194.6A7.608,7.608,0,0,0,449.423,187Zm6.8,30.8a6.811,6.811,0,0,1-6.8,6.8H233.791a6.811,6.811,0,0,1-6.8-6.8V194.6a6.811,6.811,0,0,1,6.8-6.8H449.423a6.811,6.811,0,0,1,6.8,6.8Z" transform="translate(3653.81 3507)" fill="#3f3d56"/>
    <path id="Path_521" data-name="Path 521" d="M449.423,345.679H233.791a7.61,7.61,0,0,1-7.6-7.6v-23.2a7.61,7.61,0,0,1,7.6-7.6H449.423a7.61,7.61,0,0,1,7.6,7.6v23.2a7.61,7.61,0,0,1-7.6,7.6ZM233.791,308.074a6.809,6.809,0,0,0-6.8,6.8v23.2a6.809,6.809,0,0,0,6.8,6.8H449.423a6.809,6.809,0,0,0,6.8-6.8v-23.2a6.809,6.809,0,0,0-6.8-6.8Z" transform="translate(3653.81 3441.534)" fill="#ccc"/>
    <path id="Path_522" data-name="Path 522" d="M449.423,465.953H233.791a7.61,7.61,0,0,1-7.6-7.6v-23.2a7.61,7.61,0,0,1,7.6-7.6H449.423a7.61,7.61,0,0,1,7.6,7.6v23.2a7.61,7.61,0,0,1-7.6,7.6ZM233.791,428.348a6.809,6.809,0,0,0-6.8,6.8v23.2a6.809,6.809,0,0,0,6.8,6.8H449.423a6.809,6.809,0,0,0,6.8-6.8v-23.2a6.809,6.809,0,0,0-6.8-6.8Z" transform="translate(3653.81 3376.069)" fill="#ccc"/>
    <path id="Path_523" data-name="Path 523" d="M291.007,226.567a13.23,13.23,0,1,1,13.23-13.23A13.23,13.23,0,0,1,291.007,226.567Z" transform="translate(3625.731 3499.865)" fill="#6c63ff"/>
    <path id="Path_524" data-name="Path 524" d="M500.691,245.2H359.47a3.2,3.2,0,0,1,0-6.4H500.691a3.2,3.2,0,1,1,0,6.4Z" transform="translate(3583.007 3478.807)" fill="#ccc"/>
    <path id="Path_525" data-name="Path 525" d="M454.684,215.348H359.47a3.2,3.2,0,1,1,0-6.4h95.214a3.2,3.2,0,1,1,0,6.4Z" transform="translate(3583.007 3495.054)" fill="#ccc"/>
    <path id="Path_526" data-name="Path 526" d="M291.007,346.841a13.23,13.23,0,1,1,13.23-13.23,13.23,13.23,0,0,1-13.23,13.23Z" transform="translate(3625.731 3434.4)" fill="#e6e6e6"/>
    <path id="Path_527" data-name="Path 527" d="M500.691,365.471H359.47a3.2,3.2,0,1,1,0-6.4H500.691a3.2,3.2,0,1,1,0,6.4Z" transform="translate(3583.007 3413.341)" fill="#e6e6e6"/>
    <path id="Path_528" data-name="Path 528" d="M454.684,335.622H359.47a3.2,3.2,0,1,1,0-6.4h95.214a3.2,3.2,0,1,1,0,6.4Z" transform="translate(3583.007 3429.588)" fill="#e6e6e6"/>
    <path id="Path_529" data-name="Path 529" d="M291.007,467.114a13.23,13.23,0,1,1,13.23-13.23A13.23,13.23,0,0,1,291.007,467.114Z" transform="translate(3625.731 3368.935)" fill="#e6e6e6"/>
    <path id="Path_530" data-name="Path 530" d="M500.691,485.745H359.47a3.2,3.2,0,1,1,0-6.4H500.691a3.2,3.2,0,0,1,0,6.4Z" transform="translate(3583.007 3347.876)" fill="#e6e6e6"/>
    <path id="Path_531" data-name="Path 531" d="M454.684,455.9H359.47a3.2,3.2,0,1,1,0-6.4h95.214a3.2,3.2,0,1,1,0,6.4Z" transform="translate(3583.007 3364.123)" fill="#e6e6e6"/>
    <path id="Path_395" data-name="Path 395" d="M299.412,226.1a1.513,1.513,0,0,1-.91-.3l-.016-.012-3.429-2.623a1.524,1.524,0,1,1,1.854-2.419l2.221,1.7,5.248-6.847a1.523,1.523,0,0,1,2.136-.282h0l-.033.045.033-.045a1.525,1.525,0,0,1,.282,2.136l-6.173,8.05a1.524,1.524,0,0,1-1.212.594Z" transform="translate(3616.651 3491.759)" fill="#fff"/>
  </g>
</svg>
